<svg width="39" height="56" viewBox="0 0 39 56" fill="none" xmlns="http://www.w3.org/2000/svg">
<g filter="url(#filter0_d_69_8)">
<path d="M4.81818 52V47.9091L20.1818 31.0909C21.9848 29.1212 23.4697 27.4091 24.6364 25.9545C25.803 24.4848 26.6667 23.1061 27.2273 21.8182C27.803 20.5152 28.0909 19.1515 28.0909 17.7273C28.0909 16.0909 27.697 14.6742 26.9091 13.4773C26.1364 12.2803 25.0758 11.3561 23.7273 10.7045C22.3788 10.053 20.8636 9.72727 19.1818 9.72727C17.3939 9.72727 15.8333 10.0985 14.5 10.8409C13.1818 11.5682 12.1591 12.5909 11.4318 13.9091C10.7197 15.2273 10.3636 16.7727 10.3636 18.5455H5C5 15.8182 5.62879 13.4242 6.88636 11.3636C8.14394 9.30303 9.85606 7.69697 12.0227 6.54545C14.2045 5.39394 16.6515 4.81818 19.3636 4.81818C22.0909 4.81818 24.5076 5.39394 26.6136 6.54545C28.7197 7.69697 30.3712 9.25 31.5682 11.2045C32.7652 13.1591 33.3636 15.3333 33.3636 17.7273C33.3636 19.4394 33.053 21.1136 32.4318 22.75C31.8258 24.3712 30.7652 26.1818 29.25 28.1818C27.75 30.1667 25.6667 32.5909 23 35.4545L12.5455 46.6364V47H34.1818V52H4.81818Z" fill="#FF872B"/>
</g>
<defs>
<filter id="filter0_d_69_8" x="0.818176" y="0.818115" width="37.3636" height="55.1819" filterUnits="userSpaceOnUse" color-interpolation-filters="sRGB">
<feFlood flood-opacity="0" result="BackgroundImageFix"/>
<feColorMatrix in="SourceAlpha" type="matrix" values="0 0 0 0 0 0 0 0 0 0 0 0 0 0 0 0 0 0 127 0" result="hardAlpha"/>
<feOffset/>
<feGaussianBlur stdDeviation="2"/>
<feComposite in2="hardAlpha" operator="out"/>
<feColorMatrix type="matrix" values="0 0 0 0 1 0 0 0 0 0.529412 0 0 0 0 0.168627 0 0 0 1 0"/>
<feBlend mode="normal" in2="BackgroundImageFix" result="effect1_dropShadow_69_8"/>
<feBlend mode="normal" in="SourceGraphic" in2="effect1_dropShadow_69_8" result="shape"/>
</filter>
</defs>
</svg>
