<svg width="41" height="57" viewBox="0 0 41 57" fill="none" xmlns="http://www.w3.org/2000/svg">
<g filter="url(#filter0_d_69_12)">
<path d="M20.5455 52.6364C17.5455 52.6364 14.8712 52.1212 12.5227 51.0909C10.1894 50.0606 8.33333 48.6288 6.95455 46.7955C5.59091 44.947 4.84848 42.803 4.72727 40.3636H10.4545C10.5758 41.8636 11.0909 43.1591 12 44.25C12.9091 45.3258 14.0985 46.1591 15.5682 46.75C17.0379 47.3409 18.6667 47.6364 20.4545 47.6364C22.4545 47.6364 24.2273 47.2879 25.7727 46.5909C27.3182 45.8939 28.5303 44.9242 29.4091 43.6818C30.2879 42.4394 30.7273 41 30.7273 39.3636C30.7273 37.6515 30.303 36.1439 29.4545 34.8409C28.6061 33.5227 27.3636 32.4924 25.7273 31.75C24.0909 31.0076 22.0909 30.6364 19.7273 30.6364H16V25.6364H19.7273C21.5758 25.6364 23.197 25.303 24.5909 24.6364C26 23.9697 27.0985 23.0303 27.8864 21.8182C28.6894 20.6061 29.0909 19.1818 29.0909 17.5455C29.0909 15.9697 28.7424 14.5985 28.0455 13.4318C27.3485 12.2651 26.3636 11.3561 25.0909 10.7045C23.8333 10.053 22.3485 9.72727 20.6364 9.72727C19.0303 9.72727 17.5152 10.0227 16.0909 10.6136C14.6818 11.1894 13.5303 12.0303 12.6364 13.1364C11.7424 14.2273 11.2576 15.5455 11.1818 17.0909H5.72727C5.81818 14.6515 6.55303 12.5151 7.93182 10.6818C9.31061 8.83333 11.1136 7.39394 13.3409 6.36364C15.5833 5.33333 18.0455 4.81818 20.7273 4.81818C23.6061 4.81818 26.0758 5.40151 28.1364 6.56818C30.197 7.71969 31.7803 9.24242 32.8864 11.1364C33.9924 13.0303 34.5455 15.0758 34.5455 17.2727C34.5455 19.8939 33.8561 22.1288 32.4773 23.9773C31.1136 25.8258 29.2576 27.1061 26.9091 27.8182V28.1818C29.8485 28.6667 32.1439 29.9167 33.7955 31.9318C35.447 33.9318 36.2727 36.4091 36.2727 39.3636C36.2727 41.8939 35.5833 44.1667 34.2045 46.1818C32.8409 48.1818 30.9773 49.7576 28.6136 50.9091C26.25 52.0606 23.5606 52.6364 20.5455 52.6364Z" fill="#FF872B"/>
</g>
<defs>
<filter id="filter0_d_69_12" x="0.727264" y="0.818115" width="39.5455" height="55.8184" filterUnits="userSpaceOnUse" color-interpolation-filters="sRGB">
<feFlood flood-opacity="0" result="BackgroundImageFix"/>
<feColorMatrix in="SourceAlpha" type="matrix" values="0 0 0 0 0 0 0 0 0 0 0 0 0 0 0 0 0 0 127 0" result="hardAlpha"/>
<feOffset/>
<feGaussianBlur stdDeviation="2"/>
<feComposite in2="hardAlpha" operator="out"/>
<feColorMatrix type="matrix" values="0 0 0 0 1 0 0 0 0 0.529412 0 0 0 0 0.168627 0 0 0 1 0"/>
<feBlend mode="normal" in2="BackgroundImageFix" result="effect1_dropShadow_69_12"/>
<feBlend mode="normal" in="SourceGraphic" in2="effect1_dropShadow_69_12" result="shape"/>
</filter>
</defs>
</svg>
