<svg xmlns="http://www.w3.org/2000/svg" width="129.435" height="29.188" viewBox="0 0 129.435 29.188"><defs><style>.a{fill:#fff;}</style></defs><path class="a" d="M87.682,19.063a5.79,5.79,0,0,1-4.445-1.8A7.113,7.113,0,0,1,81.621,12.4,7.268,7.268,0,0,1,83.2,7.523a6.416,6.416,0,0,1,9-.011A7.256,7.256,0,0,1,93.772,12.4a7.156,7.156,0,0,1-1.578,4.847A5.825,5.825,0,0,1,87.682,19.063Zm0-10.563A2.109,2.109,0,0,0,85.7,9.623a5.85,5.85,0,0,0-.534,2.775c0,2.621.8,3.841,2.514,3.841,1.734,0,2.542-1.221,2.542-3.841C90.224,9.739,89.417,8.5,87.682,8.5ZM77.71,19.063a5.94,5.94,0,0,1-4.553-1.811,7.116,7.116,0,0,1-1.62-4.882,7.208,7.208,0,0,1,1.582-4.83A5.7,5.7,0,0,1,77.57,5.676a7.671,7.671,0,0,1,3.884.876,7.542,7.542,0,0,0-1.23,2.457,5.385,5.385,0,0,0-2.207-.452c-1.873,0-2.9,1.354-2.9,3.814a4.581,4.581,0,0,0,.789,2.817,2.543,2.543,0,0,0,2.088,1A4.753,4.753,0,0,0,80.2,15.76a7.976,7.976,0,0,0,1.313,2.456A7.741,7.741,0,0,1,77.71,19.063Zm-12.4,0a9.231,9.231,0,0,1-4.358-.819,5.689,5.689,0,0,1,0-2.739,10.458,10.458,0,0,0,3.8.763c1.241,0,1.844-.388,1.844-1.187,0-.689-.335-.943-1.342-1.356l-1.089-.451c-2.38-.975-3.184-1.966-3.184-3.926a3.252,3.252,0,0,1,1.355-2.662A5.576,5.576,0,0,1,65.7,5.676a8.992,8.992,0,0,1,3.771.678,6.938,6.938,0,0,1,0,2.626A10.307,10.307,0,0,0,66.2,8.444c-.828,0-1.675.117-1.675.989,0,.522.451.81,1.284,1.158l1.4.593a5.152,5.152,0,0,1,2.182,1.5,3.806,3.806,0,0,1,.695,2.429,3.575,3.575,0,0,1-1.393,2.93A5.522,5.522,0,0,1,65.308,19.063Zm-10.866,0c-4.189,0-6.592-2.409-6.592-6.609a7.337,7.337,0,0,1,1.613-4.977,5.72,5.72,0,0,1,4.42-1.8A5.173,5.173,0,0,1,57.8,7.226a6.351,6.351,0,0,1,1.47,4.41,8.908,8.908,0,0,1-.139,1.779H51.257c.255,1.881,1.416,2.8,3.548,2.8a12.835,12.835,0,0,0,3.575-.593,6.289,6.289,0,0,1,0,2.711A9.707,9.707,0,0,1,54.442,19.063Zm-.614-10.7a2.577,2.577,0,0,0-2.57,2.485h4.8C55.981,8.791,54.8,8.36,53.827,8.36ZM40.7,19.063c-4.076,0-6.509-2.46-6.509-6.58a6.921,6.921,0,0,1,1.777-4.932,6.271,6.271,0,0,1,4.648-1.818,6.914,6.914,0,0,1,1.816.2V2.852a1.46,1.46,0,0,1,.586-1.27A10.253,10.253,0,0,1,45.894,0V18.273A16.505,16.505,0,0,1,40.7,19.063Zm.223-10.534A2.838,2.838,0,0,0,38.5,9.585a4.843,4.843,0,0,0-.73,2.9c0,2.439,1.1,3.728,3.185,3.728a4.9,4.9,0,0,0,1.481-.2V8.727A5.287,5.287,0,0,0,40.922,8.529ZM27.514,19.063c-3.778,0-5.615-1.423-5.615-4.349a3.386,3.386,0,0,1,1.641-3.057,7.368,7.368,0,0,1,3.862-.9c.468,0,1.139.062,1.621.113v-.141c0-1.5-.868-2.232-2.654-2.232a12.265,12.265,0,0,0-3.185.367,6.115,6.115,0,0,1,0-2.767,14.367,14.367,0,0,1,3.446-.428q.147,0,.3,0a5.845,5.845,0,0,1,4.04,1.374,5.248,5.248,0,0,1,1.379,3.936V18.3A16.953,16.953,0,0,1,27.514,19.063Zm.028-5.93c-1.677,0-2.458.5-2.458,1.581s.8,1.611,2.458,1.611a9.368,9.368,0,0,0,1.481-.142V13.217l-.1-.009C28.562,13.178,28.022,13.133,27.542,13.133ZM4.581,19.063A13.477,13.477,0,0,1,0,18.329V2.852a1.458,1.458,0,0,1,.587-1.27A10.224,10.224,0,0,1,3.464,0V6.27a6.173,6.173,0,0,1,2.6-.536c3.639,0,5.643,2.307,5.643,6.5a6.746,6.746,0,0,1-1.864,4.931A7.271,7.271,0,0,1,4.581,19.063ZM5.475,8.642a4.314,4.314,0,0,0-2.012.4V16.07a4.242,4.242,0,0,0,1.313.141c2.13,0,3.351-1.483,3.351-4.067C8.128,9.853,7.211,8.642,5.475,8.642ZM15.558,18.923a7.479,7.479,0,0,1-1.732-.141V5.988a6.353,6.353,0,0,1,1.4-.142,5.352,5.352,0,0,1,1.425.142,9.032,9.032,0,0,1,.391,1.665A4.815,4.815,0,0,1,18.5,6.316a4.094,4.094,0,0,1,2.029-.47,4.881,4.881,0,0,1,.977.113,7.392,7.392,0,0,1-.056,2.824,7.651,7.651,0,0,0-1.146-.057,2.72,2.72,0,0,0-2.158.974,4.369,4.369,0,0,0-.859,2.838v6.242A9.83,9.83,0,0,1,15.558,18.923Z" transform="translate(35.663 10.125)"/><g transform="translate(0)"><path class="a" d="M14.268,6.216A33.394,33.394,0,0,0,8.7,6.7a10.539,10.539,0,0,1,8.352-4.1,10.716,10.716,0,0,1,6.691,2.374c.3.256.538.279.772.046s.211-.465-.047-.768A11.739,11.739,0,0,0,4.4,7.705,21.112,21.112,0,0,0,.372,9.4c-.327.186-.445.419-.327.7a.51.51,0,0,0,.678.256c1.03-.3,2.082-.559,3.182-.792a9.209,9.209,0,0,0-.187,1.816A11.754,11.754,0,0,0,9.1,21.436c.328.21.609.21.8-.046a.5.5,0,0,0-.117-.745A10.308,10.308,0,0,1,6.5,13.081,10.083,10.083,0,0,1,7.32,9.055c1.1-.093,2.292-.163,3.6-.163,8.516,0,15.7,2.839,15.7,6.563,0,1.885-2.363,3.77-5.17,5.027-.678.3-.749.511-.655.814.094.28.4.372.749.256,4.913-1.629,8.632-4.305,8.632-7.54,0-4.4-7.018-7.8-15.908-7.8" transform="translate(0 0)"/><path class="a" d="M2.521.07,0,1.537V10.28H2.7a.456.456,0,0,0,.454-.458V.4A.393.393,0,0,0,2.521.07" transform="translate(15.184 18.766)"/><path class="a" d="M2.022,0,.294,1A.556.556,0,0,0,0,1.518V8.035a.294.294,0,0,0,.292.3h1.73Z" transform="translate(12.452 20.716)"/></g></svg>