<?xml version="1.0" encoding="UTF-8"?>
<svg id="Camada_1" data-name="Camada 1" xmlns="http://www.w3.org/2000/svg" viewBox="0 0 80.45 73.53">
  <defs>
    <style>
      .cls-1 {
        fill: #fff;
      }
    </style>
  </defs>
  <path class="cls-1" d="M2.45,37.24c-.02,19.59,15.85,35.51,35.43,35.54,19.58,.04,35.53-15.83,35.57-35.41,.04-19.62-15.85-35.56-35.47-35.58C18.4,1.78,2.47,17.67,2.45,37.24Z"/>
  <path d="M2.45,37.2C2.47,17.63,18.4,1.75,37.98,1.76c19.61,.02,35.51,15.96,35.47,35.58-.04,19.58-15.98,35.45-35.57,35.41-19.58-.04-35.45-15.95-35.43-35.54Zm30.42,2.19v21.9h8.83v-21.89h7.39c.37-2.88,.73-5.7,1.11-8.61h-8.43c0-2.26-.07-4.43,.02-6.6,.07-1.63,.95-2.64,2.56-2.83,1.71-.2,3.44-.13,5.17-.18,.3,0,.59,0,.9,0v-7.7c-2.99-.19-5.96-.6-8.93-.1-4.46,.74-7.3,3.33-8.26,7.75-.36,1.64-.31,3.38-.38,5.07-.06,1.51-.01,3.02-.01,4.62h-7.34v8.57h7.38Z"/>
  <path class="cls-1" d="M32.87,39.43h-7.38v-8.57h7.34c0-1.6-.05-3.11,.01-4.62,.06-1.7,.02-3.43,.38-5.07,.96-4.42,3.81-7.01,8.26-7.75,2.97-.49,5.94-.08,8.93,.1v7.7c-.3,0-.6,0-.9,0-1.72,.05-3.46-.02-5.17,.18-1.62,.19-2.5,1.2-2.56,2.83-.09,2.17-.02,4.34-.02,6.6h8.43c-.37,2.91-.74,5.73-1.11,8.61h-7.39v21.89h-8.83v-21.9Z"/>
</svg>