<?xml version="1.0" encoding="UTF-8"?>
<svg id="Camada_1" data-name="Camada 1" xmlns="http://www.w3.org/2000/svg" viewBox="0 0 78.64 74.55">
  <defs>
    <style>
      .cls-1 {
        fill: #fff;
      }
    </style>
  </defs>
  <path d="M77,35.84v4.43c-.06,.45-.12,.91-.17,1.36-.77,7.02-3.34,13.31-7.88,18.77-5.64,6.79-12.86,11-21.62,12.57-1.33,.24-2.67,.37-4.01,.55h-4.49c-.18-.04-.36-.1-.54-.11-7.85-.63-14.82-3.41-20.7-8.57-9.22-8.07-13.31-18.26-12.24-30.36,.67-7.56,3.68-14.23,8.81-19.89C21.15,6.88,29.96,2.86,40.46,2.61c6.8-.16,13.18,1.48,18.98,4.99,9.29,5.62,15,13.74,17.01,24.35,.24,1.29,.37,2.6,.55,3.9ZM41.07,17.59c0,.08,0,.16,0,.25-2.95,0-5.89-.05-8.84,.02-2.39,.06-4.68,.61-6.7,1.95-3.38,2.24-4.83,5.55-4.91,9.4-.12,5.91-.08,11.82,0,17.73,.03,2.31,.63,4.53,1.96,6.48,2.27,3.33,5.62,4.77,9.52,4.84,5.98,.12,11.97,.1,17.96,0,2.97-.04,5.71-.94,7.94-3.01,2.47-2.29,3.47-5.23,3.55-8.47,.12-4.85,.12-9.7,.13-14.55,0-1.43-.11-2.86-.25-4.28-.56-5.51-4.54-9.5-10.12-9.96-3.4-.28-6.82-.28-10.23-.41Z"/>
  <path class="cls-1" d="M43.31,73.53c1.34-.18,2.68-.31,4.01-.55,8.76-1.57,15.98-5.79,21.62-12.57,4.54-5.46,7.11-11.75,7.88-18.77,.05-.46,.11-.91,.17-1.36v33.26H43.31Z"/>
  <path class="cls-1" d="M41.07,17.59c3.41,.13,6.83,.13,10.23,.41,5.58,.46,9.56,4.45,10.12,9.96,.14,1.42,.25,2.86,.25,4.28,0,4.85,0,9.7-.13,14.55-.08,3.24-1.08,6.17-3.55,8.47-2.23,2.07-4.97,2.97-7.94,3.01-5.98,.09-11.97,.12-17.96,0-3.9-.08-7.25-1.51-9.52-4.84-1.33-1.95-1.94-4.17-1.96-6.48-.07-5.91-.11-11.82,0-17.73,.08-3.85,1.53-7.16,4.91-9.4,2.02-1.34,4.31-1.89,6.7-1.95,2.94-.07,5.89-.02,8.84-.02,0-.08,0-.16,0-.25Zm-16.98,20.39c.09,3.14,.1,6.21,.28,9.27,.27,4.37,2.96,7.15,7.37,7.27,6.24,.17,12.48,.16,18.72,0,4.3-.11,7.16-2.94,7.28-7.2,.16-6.16,.17-12.32,0-18.48-.12-4.31-2.95-7.1-7.31-7.23-5.89-.18-11.78-.12-17.67-.12-1.57,0-3.13,.27-4.54,1.01-2.52,1.31-3.66,3.53-3.82,6.21-.2,3.11-.21,6.23-.3,9.28Z"/>
  <path d="M24.09,37.98c.09-3.05,.1-6.17,.3-9.28,.17-2.68,1.31-4.9,3.82-6.21,1.42-.74,2.97-1.01,4.54-1.01,5.89,0,11.78-.07,17.67,.12,4.36,.14,7.2,2.92,7.31,7.23,.17,6.16,.16,12.32,0,18.48-.11,4.26-2.97,7.09-7.28,7.2-6.24,.16-12.48,.17-18.72,0-4.41-.12-7.1-2.9-7.37-7.27-.19-3.06-.19-6.14-.28-9.27Zm16.96-10.37c-5.85,.01-10.56,4.66-10.57,10.43-.02,5.79,4.74,10.48,10.61,10.47,5.85-.01,10.56-4.66,10.57-10.43,.02-5.79-4.74-10.48-10.6-10.47Zm11.04,2.01c1.36,0,2.45-1.07,2.46-2.4,.01-1.37-1.09-2.46-2.47-2.46-1.39,0-2.47,1.1-2.46,2.48,.02,1.34,1.11,2.39,2.47,2.39Z"/>
  <path class="cls-1" d="M41.05,27.61c5.87-.01,10.62,4.68,10.6,10.47-.02,5.78-4.72,10.42-10.57,10.43-5.87,.01-10.62-4.68-10.61-10.47,.02-5.78,4.72-10.42,10.57-10.43Zm6.89,10.42c-.02-3.73-3.11-6.76-6.89-6.75-3.78,0-6.86,3.05-6.86,6.79,0,3.76,3.12,6.81,6.93,6.79,3.78-.02,6.84-3.08,6.82-6.82Z"/>
  <path class="cls-1" d="M52.09,29.62c-1.36,0-2.45-1.05-2.47-2.39-.02-1.38,1.07-2.47,2.46-2.48,1.39,0,2.49,1.09,2.47,2.46-.01,1.34-1.1,2.4-2.46,2.4Z"/>
  <path d="M47.94,38.03c.02,3.74-3.05,6.8-6.82,6.82-3.81,.02-6.93-3.03-6.93-6.79,0-3.73,3.08-6.78,6.86-6.79,3.79,0,6.88,3.02,6.89,6.75Z"/>
</svg>