<svg id="Layer_1" data-name="Layer 1" xmlns="http://www.w3.org/2000/svg" viewBox="0 0 114.35 36.99"><defs><style>.cls-1{fill:#fb0805;}.cls-2{fill:#5b5459;}</style></defs><path class="cls-1" d="M15.09,9.18a4.51,4.51,0,0,0-.61-2.09l-3.3-5.71A4.62,4.62,0,0,1,10.66,0l-.14.24a4.55,4.55,0,0,0,0,4.57l2.64,4.57a4.55,4.55,0,0,1,0,4.57l-.14.24a4.62,4.62,0,0,0-.52-1.38L10.09,8.63,8.55,6A4.72,4.72,0,0,1,8,4.57l-.14.24a4.59,4.59,0,0,0,0,4.55l2.65,4.58a4.55,4.55,0,0,1,0,4.57l-.14.24a4.62,4.62,0,0,0-.52-1.38l-3.3-5.71A4.66,4.66,0,0,1,6,9.18c-3.52.92-6,2.88-6,5.14C0,17.47,4.71,20,10.53,20s10.53-2.56,10.53-5.71c0-2.26-2.44-4.22-6-5.14M25,18.93a6.65,6.65,0,0,1,.38-2A9.32,9.32,0,0,0,29,17.7c1.84,0,2.87-.59,2.87-1.76s-.75-1.68-2.61-2.49l-1-.43c-1.86-.81-3.12-1.86-3.12-4,0-2.25,1.56-3.7,4.77-3.7a11,11,0,0,1,3.62.57,7.61,7.61,0,0,1-.4,2,9.89,9.89,0,0,0-3.24-.57c-1.72,0-2.51.67-2.51,1.72s.77,1.62,2.16,2.22l1.07.45c2.51,1.07,3.56,2.2,3.56,4.11,0,2.27-1.72,3.84-5.08,3.84A9.66,9.66,0,0,1,25,18.93M44.79,9.47v9.89h-2l-.12-1.19a3,3,0,0,1-2.79,1.42c-2.61,0-4.35-1.9-4.35-5.22,0-3.48,1.86-5.46,5.52-5.46a11.48,11.48,0,0,1,3.74.56m-2.17,7.64V10.9a8.92,8.92,0,0,0-1.56-.12c-2.25,0-3.3,1.38-3.3,3.6,0,2,.81,3.44,2.75,3.44a3.46,3.46,0,0,0,2.11-.71m13.31-4.39v6.65H53.75V13.1c0-1.56-.51-2.31-2.69-2.31a10.79,10.79,0,0,0-1.72.16v8.43H47.16V9.47a18.25,18.25,0,0,1,4-.55c3.64,0,4.81,1.4,4.81,3.8m6,5a4.87,4.87,0,0,0,1.7-.3,18.51,18.51,0,0,1-.26,1.84,4.89,4.89,0,0,1-1.84.32c-2.12,0-3.46-1-3.46-3.38V5.83a7.43,7.43,0,0,1,2.18-.32V9.25h3.44a16.57,16.57,0,0,1-.2,1.86H60.28V16c0,1.29.63,1.78,1.68,1.78M73.63,9.47v9.89h-2l-.12-1.19a3,3,0,0,1-2.79,1.42c-2.61,0-4.35-1.9-4.35-5.22,0-3.48,1.86-5.46,5.52-5.46a11.52,11.52,0,0,1,3.74.56m-2.18,7.64V10.9a8.92,8.92,0,0,0-1.56-.12c-2.25,0-3.3,1.38-3.3,3.6,0,2,.81,3.44,2.75,3.44a3.41,3.41,0,0,0,2.11-.71m13.31-4.39v6.65H82.58V13.1c0-1.56-.51-2.31-2.69-2.31a10.79,10.79,0,0,0-1.72.16v8.43H76V9.47a18.25,18.25,0,0,1,4-.55c3.64,0,4.8,1.4,4.8,3.8m11-7.2V19.36h-2l-.12-1.27a3,3,0,0,1-2.83,1.5c-2.61,0-4.35-1.9-4.35-5.22,0-3.48,1.86-5.46,5.52-5.46a8.4,8.4,0,0,1,1.62.16V5.81a6.87,6.87,0,0,1,2.16-.29M93.65,17.07V11a8.6,8.6,0,0,0-1.74-.2c-2.16,0-3.18,1.35-3.18,3.6,0,2,.81,3.44,2.75,3.44a3.54,3.54,0,0,0,2.17-.75m13.09-1.94H99.8c.28,1.76,1.31,2.61,3.24,2.61a8.54,8.54,0,0,0,3.48-.75c-.08.57-.2,1.32-.34,2a7.56,7.56,0,0,1-3.2.63c-3.64,0-5.4-2-5.4-5.4,0-2.95,1.36-5.28,4.83-5.28,3.11,0,4.45,2,4.45,4.53a11.45,11.45,0,0,1-.12,1.68m-7-1.82h4.91a2.26,2.26,0,0,0-2.37-2.57c-1.55,0-2.37.89-2.54,2.57M114.35,9a8.07,8.07,0,0,1-.2,1.86,13.85,13.85,0,0,0-1.64-.08,10.77,10.77,0,0,0-1.6.12v8.46h-2.18V9.47a13.11,13.11,0,0,1,3.72-.55,17.42,17.42,0,0,1,1.9.08"/><path class="cls-2" d="M27.27,24.82A11.93,11.93,0,0,0,25,25v9.19H26V30.7h1.34c2.38,0,3.56-1.15,3.56-3,0-1.63-1-2.85-3.6-2.85m0,5H26v-4a7.39,7.39,0,0,1,1.33-.11c1.71,0,2.63.72,2.63,2.06s-.79,2.08-2.63,2.08m8.11-2.58a3.46,3.46,0,0,1-.09.8,8.26,8.26,0,0,0-1-.05,6.2,6.2,0,0,0-1.31.15v6.09H32v-6.7a7.76,7.76,0,0,1,2.22-.35c.44,0,.86,0,1.15.06m1.09-1.62a.62.62,0,0,1,.63-.63.61.61,0,0,1,.62.63.59.59,0,0,1-.62.62.61.61,0,0,1-.63-.62m.16,1.7h.94v6.91h-.94Zm8.25,0-2.56,6.91H41.18L38.6,27.33h1l2.17,6,2.12-6Zm4-.16c-2.4,0-3.56,1.31-3.56,3.67s1.18,3.56,3.08,3.56a2.71,2.71,0,0,0,1.82-.68l0,.52h.87v-6.7a6.27,6.27,0,0,0-2.24-.37m1.3,5.77a2.34,2.34,0,0,1-1.7.68c-1.46,0-2.21-1.06-2.21-2.79S47.08,28,48.87,28a4.82,4.82,0,0,1,1.3.16Zm6.08.44c0,.25-.07.55-.12.8a3.35,3.35,0,0,1-1.21.21,1.87,1.87,0,0,1-2.08-2.14V25a3.41,3.41,0,0,1,.94-.15v2.48H56.2a5,5,0,0,1-.09.84H53.78v3.94c0,1,.47,1.45,1.3,1.45a3.14,3.14,0,0,0,1.17-.21m6.47-3.1c0-1.73-.86-3.11-2.87-3.11-2.2,0-3.09,1.58-3.09,3.58,0,2.3,1.18,3.66,3.41,3.66a4.07,4.07,0,0,0,2.13-.51,8.87,8.87,0,0,0,.15-.9,4.5,4.5,0,0,1-2.25.58,2.32,2.32,0,0,1-2.49-2.46h5a5.92,5.92,0,0,0,0-.84m-.94,0H57.71c.11-1.39.76-2.28,2.1-2.28s2,.9,2,2.22ZM71,29.41a2.24,2.24,0,0,0,1.57-2.14c0-1.5-1-2.44-3.48-2.44a13.85,13.85,0,0,0-2.25.19v9.23h2.69c2.42,0,3.47-1,3.47-2.64a2.23,2.23,0,0,0-2-2.2m-3.23-3.63a12.46,12.46,0,0,1,1.33-.08c2,0,2.52.71,2.52,1.67S70.89,29,69.44,29H67.77V25.78Zm1.66,7.59H67.76V29.89H69.5c1.69,0,2.52.67,2.52,1.75s-.82,1.73-2.6,1.73m8.18-6.2c-2.4,0-3.56,1.31-3.56,3.67s1.18,3.56,3.08,3.56a2.71,2.71,0,0,0,1.82-.68l0,.52h.87v-6.7a6.27,6.27,0,0,0-2.24-.37m1.3,5.77a2.34,2.34,0,0,1-1.7.68c-1.46,0-2.21-1.06-2.21-2.79S75.81,28,77.6,28a4.82,4.82,0,0,1,1.3.16Zm8.31-3.23v4.53h-.94V29.89c0-1.25-.47-1.89-2.12-1.89a7.06,7.06,0,0,0-1.55.19v6.05h-.94v-6.7a10.08,10.08,0,0,1,2.52-.38c2.26,0,3,.93,3,2.55M89,25a3.38,3.38,0,0,1,.94-.13v9.4H89Zm5.51,9.27H93.3l-3.07-3.7v-.09l2.88-3.12h1.14l-2.92,3.16Zm.69-8.61a.62.62,0,0,1,.63-.63.61.61,0,0,1,.62.63.59.59,0,0,1-.62.62.61.61,0,0,1-.63-.62m.16,1.7h.94v6.91h-.94Zm8.3,2.38v4.53h-.94V29.89c0-1.25-.47-1.89-2.12-1.89a7.06,7.06,0,0,0-1.55.19v6.05h-.94v-6.7a10.08,10.08,0,0,1,2.52-.38c2.27,0,3,.93,3,2.55m5-2.54c-2.4,0-3.56,1.31-3.56,3.67s1.18,3.56,3.08,3.56a2.64,2.64,0,0,0,1.78-.66v.36c0,1.5-.83,2.09-2.28,2.09a4.67,4.67,0,0,1-1.92-.42,4.79,4.79,0,0,0-.09.83,5.14,5.14,0,0,0,2,.39c2.24,0,3.21-1.15,3.21-3V27.54a6.22,6.22,0,0,0-2.23-.37m1.29,5.77a2.34,2.34,0,0,1-1.7.68c-1.46,0-2.21-1.06-2.21-2.79s.82-2.84,2.61-2.84a4.82,4.82,0,0,1,1.3.16Z"/></svg>